<svg width="67" height="67" viewBox="0 0 67 67" fill="none" xmlns="http://www.w3.org/2000/svg">
<path d="M33.5 65C50.897 65 65 50.897 65 33.5C65 16.103 50.897 2 33.5 2C16.103 2 2 16.103 2 33.5C2 50.897 16.103 65 33.5 65Z" fill="black" fill-opacity="0.98" stroke="white" stroke-width="4"/>
<path fill-rule="evenodd" clip-rule="evenodd" d="M43.3919 18.2434C43.5922 18.5298 43.7926 18.8175 43.9942 19.1051C44.6353 20.0278 45.4658 21.0713 45.7754 22.2632C45.7669 22.5187 45.7572 22.7706 45.7487 23.0249C45.7159 23.9533 45.6722 24.7852 45.4597 25.4916C45.3602 25.8425 45.263 26.1922 45.1647 26.542C45.4136 27.0954 45.6613 27.6488 45.909 28.1999C45.7791 28.5853 45.6516 28.9707 45.5229 29.3573C46.3704 30.4721 47.496 31.9643 47.1135 33.8972C47.0844 34.1307 47.0577 34.3666 47.0297 34.6001C46.402 34.1664 45.6261 33.6222 44.8963 33.254C44.424 33.0159 42.9451 32.5891 42.1546 32.8399C41.7721 33.0907 41.3908 33.3403 41.0084 33.59C40.7254 33.7637 40.4413 33.9363 40.1572 34.1077C39.7358 34.8924 39.3157 35.6759 38.8956 36.4617C38.9272 37.206 38.9575 37.9516 38.9879 38.6959C38.9964 39.2401 39.0061 39.7832 39.0158 40.3285C39.1312 41.6401 39.2477 42.9471 39.3631 44.2575C39.4541 45.4391 39.5452 46.6229 39.6375 47.8034C39.8864 48.3637 40.1341 48.9263 40.3818 49.4877C40.4243 49.8789 40.4692 50.2712 40.5117 50.6624C40.7485 51.2307 40.9865 51.8025 41.2245 52.3709C41.5608 53.2015 41.8 54.0897 42.2857 54.7996C42.4436 55.0274 42.82 55.0757 42.9876 55.2851C43.7428 56.6324 44.4981 57.9819 45.2533 59.3303C45.7475 60.0367 46.7383 60.551 47.2471 61.3817C47.3546 61.661 42.491 64.0203 36.9164 64.6578C33.2714 65.0746 29.468 63.9896 26.0466 63.7631C20.4433 63.3923 19.2952 60.3457 15.1731 59.3303C12.9433 58.781 12.2538 56.0227 11.2014 55.2851C8.0153 53.0522 8.48902 52.4706 9.00602 52.1224C9.7382 51.4666 10.4704 50.8096 11.2014 50.1516C11.9809 49.4797 12.7604 48.8066 13.5412 48.1324C14.0864 47.3788 14.6304 46.6252 15.1731 45.8717C15.5653 45.3585 15.9563 44.8454 16.3485 44.3311C18.2427 40.8186 19.5225 36.5905 20.8472 32.5868C21.4689 30.5112 22.087 28.438 22.7074 26.3625C23.062 25.8206 23.4153 25.2787 23.7699 24.7368C24.5458 23.5748 25.2355 22.3875 26.0466 21.2991C26.4291 20.7595 26.814 20.2188 27.1965 19.6781C27.6287 19.3548 28.0598 19.0349 28.4933 18.7116C30.6813 17.1757 33.009 15.8319 36.9164 16.0171C37.8307 16.1046 38.739 16.1886 39.6436 16.2714C41.0217 16.6407 42.4011 17.4714 43.3919 18.2434V18.2434Z" fill="white"/>
<path fill-rule="evenodd" clip-rule="evenodd" d="M33.4643 24.5079C34.5207 24.7253 35.4557 23.7727 35.2201 22.7672C35.0647 22.0999 34.5899 21.9112 33.9682 21.6385C31.8227 21.5189 31.6284 24.1271 33.4643 24.5079V24.5079Z" fill="black"/>
</svg>
