<svg height="69" viewBox="-3 -3 69 69" width="69" xmlns="http://www.w3.org/2000/svg"><g fill="none" fill-rule="evenodd"><path d="m35.3918948 2.24337156c.2003485.2864764.400697.5741033.6022597.86173021.6411153.92270711 1.4716509 1.96621752 1.7812804 3.15814341-.0084996.25541269-.0182135.50737386-.0267131.76163604-.0327843.92845965-.0764967 1.76027666-.2889876 2.46668834-.0995671.35090482-.1967058.70065914-.2950587 1.05041344.2489178.5533942.4966215 1.1067883.7443251 1.6578815-.129923.38542-.2574175.7708401-.3861262 1.1574107.8475348 1.1148418 1.9731292 2.6070502 1.5906457 4.539903-.0291416.2335531-.0558548.4694071-.0837821.7029602-.6277587-.4337414-1.4036538-.9779315-2.1334081-1.3460939-.4723367-.2381551-1.951273-.6649934-2.7417389-.4141828-.3824835.2508107-.7637528.5004708-1.1462363.750131-.2829164.1737266-.567047.3463028-.8511776.5177284-.421339.7846462-.8414637 1.5681419-1.2615885 2.3539386.0315701.7443784.0619259 1.4899074.0922817 2.2342858.0084997.5441901.0182135 1.0872297.0279274 1.6325703.1153522 1.3115787.2319186 2.6185554.3472708 3.9289835.0910675 1.1815714.182135 2.3654437.2744167 3.5458645.2489178.5602972.4966215 1.1228955.7443251 1.6843432.0424981.3911726.0874248.7834957.1299229 1.1746683.2367755.5683507.4747653 1.140153.712755 1.7085038.3363427.8306665.5755466 1.7188583 1.06124 2.4287215.1578503.2278006.5342627.2761219.7018269.4855143.7552531 1.3472444 1.5105063 2.6967898 2.2657594 4.0451848.494193.7064116 1.4850075 1.2206885 1.9937712 2.051355.107559.2793536-4.7560574 2.6386095-10.3306971 3.2761135-3.6449534.4168293-7.4483953-.6682048-10.8698178-.8946304-5.6032896-.3708189-6.7514005-3.4174428-10.8734598-4.4328384-2.2297914-.5492693-2.91933634-3.3076064-3.97175723-4.0451851-3.18605155-2.2329126-2.71233521-2.8144918-2.19533382-3.1627449.73218272-.6557893 1.46436544-1.3127292 2.19533393-1.9708195.77953783-.6718965 1.55907565-1.3449434 2.33982771-2.0191409.54519078-.7535825 1.08916733-1.507165 1.63192965-2.2607475.39219738-.5131264.78318052-1.0262528 1.1753779-1.5405297 1.89420406-3.5124997 3.17400606-7.7406152 4.49873466-11.7443818.6216875-2.0755157 1.2397323-4.1487304 1.8602055-6.2242462.3545562-.54188906.7078981-1.08377815 1.0624542-1.62566724.7758951-1.16201269 1.4655797-2.34933656 2.2766876-3.43771676.3824835-.53958808.7673955-1.08032666 1.149879-1.62106524.4322671-.32329264.8633199-.64313376 1.2968012-.9664264 2.1880486-1.53592767 4.5157339-2.87972057 8.4231369-2.69448884.9143177.08743858 1.8225643.17142563 2.7271682.25426218 1.3781548.36931295 2.757524 1.19997945 3.7483384 1.97197006z" fill="#fff" transform="translate(6 14)"/><circle cx="31.5" cy="31.5" r="31.5" stroke="#fff" stroke-width="4"/><path d="m1.46432274 3.50788555c1.05638304.21744594 1.99134273-.73517437 1.75578146-1.74071803-.15542187-.66729442-.63018712-.85597767-1.25187461-1.12864798-2.14555036-.11965279-2.3398277 2.48854798-.50390685 2.86936601z" fill="#000" transform="translate(30 19)"/></g></svg>